{
    "asset" : {
        "generator" : "Khronos glTF Blender I/O v1.6.16",
        "version" : "2.0"
    },
    "scene" : 0,
    "scenes" : [
        {
            "name" : "Scene",
            "nodes" : [
                0,
                1
            ]
        }
    ],
    "nodes" : [
        {
            "mesh" : 0,
            "name" : "Cube.013",
            "rotation" : [
                -0.7071068286895752,
                0,
                0,
                0.7071068286895752
            ],
            "scale" : [
                1,
                0.6306110620498657,
                0.040356460958719254
            ]
        },
        {
            "mesh" : 1,
            "name" : "Cube.015",
            "rotation" : [
                -0.7071068286895752,
                0,
                0,
                0.7071068286895752
            ],
            "scale" : [
                0.17823563516139984,
                0.02002914622426033,
                0.033378154039382935
            ]
        }
    ],
    "materials" : [
        {
            "doubleSided" : true,
            "name" : "Computer",
            "pbrMetallicRoughness" : {
                "baseColorFactor" : [
                    0.060451388359069824,
                    0.060451388359069824,
                    0.060451388359069824,
                    1
                ],
                "roughnessFactor" : 0.45867764949798584
            }
        },
        {
            "doubleSided" : true,
            "emissiveFactor" : [
                1,
                1,
                1
            ],
            "emissiveTexture" : {
                "index" : 0
            },
            "name" : "Display",
            "pbrMetallicRoughness" : {
                "baseColorTexture" : {
                    "index" : 1
                },
                "metallicFactor" : 0,
                "roughnessFactor" : 0.2820248007774353
            }
        },
        {
            "doubleSided" : true,
            "name" : "Computer.002",
            "pbrMetallicRoughness" : {
                "baseColorFactor" : [
                    0.36264508962631226,
                    0.36264508962631226,
                    0.36264508962631226,
                    1
                ],
                "roughnessFactor" : 0.6818180084228516
            }
        }
    ],
    "meshes" : [
        {
            "name" : "Cube",
            "primitives" : [
                {
                    "attributes" : {
                        "POSITION" : 0,
                        "NORMAL" : 1,
                        "TEXCOORD_0" : 2
                    },
                    "indices" : 3,
                    "material" : 0
                },
                {
                    "attributes" : {
                        "POSITION" : 4,
                        "NORMAL" : 5,
                        "TEXCOORD_0" : 6
                    },
                    "indices" : 7,
                    "material" : 1
                },
                {
                    "attributes" : {
                        "POSITION" : 8,
                        "NORMAL" : 9,
                        "TEXCOORD_0" : 10
                    },
                    "indices" : 11,
                    "material" : 2
                }
            ]
        },
        {
            "name" : "Cube.013",
            "primitives" : [
                {
                    "attributes" : {
                        "POSITION" : 12,
                        "NORMAL" : 13,
                        "TEXCOORD_0" : 14
                    },
                    "indices" : 15,
                    "material" : 2
                }
            ]
        }
    ],
    "textures" : [
        {
            "sampler" : 0,
            "source" : 0
        },
        {
            "sampler" : 0,
            "source" : 0
        }
    ],
    "images" : [
        {
            "bufferView" : 8,
            "mimeType" : "image/png",
            "name" : "oldPhoto"
        }
    ],
    "accessors" : [
        {
            "bufferView" : 0,
            "componentType" : 5126,
            "count" : 3230,
            "max" : [
                1.0000001192092896,
                1.0000001192092896,
                1.0000001192092896
            ],
            "min" : [
                -1.0000001192092896,
                -1.0000001192092896,
                -2.7823898792266846
            ],
            "type" : "VEC3"
        },
        {
            "bufferView" : 1,
            "componentType" : 5126,
            "count" : 3230,
            "type" : "VEC3"
        },
        {
            "bufferView" : 2,
            "componentType" : 5126,
            "count" : 3230,
            "type" : "VEC2"
        },
        {
            "bufferView" : 3,
            "componentType" : 5123,
            "count" : 4992,
            "type" : "SCALAR"
        },
        {
            "bufferView" : 4,
            "componentType" : 5126,
            "count" : 201,
            "max" : [
                0.9206616878509521,
                0.9206616878509521,
                0.5795828700065613
            ],
            "min" : [
                -0.9206616878509521,
                -0.9206616878509521,
                0.5795827507972717
            ],
            "type" : "VEC3"
        },
        {
            "bufferView" : 5,
            "componentType" : 5126,
            "count" : 201,
            "type" : "VEC3"
        },
        {
            "bufferView" : 6,
            "componentType" : 5126,
            "count" : 201,
            "type" : "VEC2"
        },
        {
            "bufferView" : 7,
            "componentType" : 5123,
            "count" : 384,
            "type" : "SCALAR"
        },
        {
            "bufferView" : 9,
            "componentType" : 5126,
            "count" : 1722,
            "max" : [
                1.0000001192092896,
                1.0000001192092896,
                1.0000001192092896
            ],
            "min" : [
                -1.0000001192092896,
                -1.0000001192092896,
                -2.7823896408081055
            ],
            "type" : "VEC3"
        },
        {
            "bufferView" : 10,
            "componentType" : 5126,
            "count" : 1722,
            "type" : "VEC3"
        },
        {
            "bufferView" : 11,
            "componentType" : 5126,
            "count" : 1722,
            "type" : "VEC2"
        },
        {
            "bufferView" : 12,
            "componentType" : 5123,
            "count" : 2688,
            "type" : "SCALAR"
        },
        {
            "bufferView" : 13,
            "componentType" : 5126,
            "count" : 3712,
            "max" : [
                1.676815390586853,
                1.0000001192092896,
                4.8865275382995605
            ],
            "min" : [
                -1.6768152713775635,
                -46.77290725708008,
                -11.48768138885498
            ],
            "type" : "VEC3"
        },
        {
            "bufferView" : 14,
            "componentType" : 5126,
            "count" : 3712,
            "type" : "VEC3"
        },
        {
            "bufferView" : 15,
            "componentType" : 5126,
            "count" : 3712,
            "type" : "VEC2"
        },
        {
            "bufferView" : 16,
            "componentType" : 5123,
            "count" : 5568,
            "type" : "SCALAR"
        }
    ],
    "bufferViews" : [
        {
            "buffer" : 0,
            "byteLength" : 38760,
            "byteOffset" : 0
        },
        {
            "buffer" : 0,
            "byteLength" : 38760,
            "byteOffset" : 38760
        },
        {
            "buffer" : 0,
            "byteLength" : 25840,
            "byteOffset" : 77520
        },
        {
            "buffer" : 0,
            "byteLength" : 9984,
            "byteOffset" : 103360
        },
        {
            "buffer" : 0,
            "byteLength" : 2412,
            "byteOffset" : 113344
        },
        {
            "buffer" : 0,
            "byteLength" : 2412,
            "byteOffset" : 115756
        },
        {
            "buffer" : 0,
            "byteLength" : 1608,
            "byteOffset" : 118168
        },
        {
            "buffer" : 0,
            "byteLength" : 768,
            "byteOffset" : 119776
        },
        {
            "buffer" : 0,
            "byteLength" : 179367,
            "byteOffset" : 120544
        },
        {
            "buffer" : 0,
            "byteLength" : 20664,
            "byteOffset" : 299912
        },
        {
            "buffer" : 0,
            "byteLength" : 20664,
            "byteOffset" : 320576
        },
        {
            "buffer" : 0,
            "byteLength" : 13776,
            "byteOffset" : 341240
        },
        {
            "buffer" : 0,
            "byteLength" : 5376,
            "byteOffset" : 355016
        },
        {
            "buffer" : 0,
            "byteLength" : 44544,
            "byteOffset" : 360392
        },
        {
            "buffer" : 0,
            "byteLength" : 44544,
            "byteOffset" : 404936
        },
        {
            "buffer" : 0,
            "byteLength" : 29696,
            "byteOffset" : 449480
        },
        {
            "buffer" : 0,
            "byteLength" : 11136,
            "byteOffset" : 479176
        }
    ],
    "samplers" : [
        {
            "magFilter" : 9729,
            "minFilter" : 9987,
            "wrapS" : 33071,
            "wrapT" : 33071
        }
    ],
    "buffers" : [
        {
            "byteLength" : 490312,
            "uri" : "data:application/octet-stream;base64,"
        }
    ]
}
